<?xml version="1.0" encoding="utf-8"?>
<!-- Generator: Adobe Illustrator 24.2.0, SVG Export Plug-In . SVG Version: 6.00 Build 0)  -->
<svg version="1.1" id="Capa_1" xmlns="http://www.w3.org/2000/svg" xmlns:xlink="http://www.w3.org/1999/xlink" x="0px" y="0px"
	 viewBox="0 0 89.33 23.84" style="enable-background:new 0 0 89.33 23.84;" xml:space="preserve">
<style type="text/css">
	.st0{clip-path:url(#SVGID_2_);}
	.st1{clip-path:url(#SVGID_6_);}
	.st2{clip-path:url(#SVGID_10_);}
	.st3{clip-path:url(#SVGID_14_);}
	.st4{clip-path:url(#SVGID_18_);}
	.st5{clip-path:url(#SVGID_22_);}
	.st6{clip-path:url(#SVGID_26_);fill:#FFFFFF;}
	.st7{clip-path:url(#SVGID_26_);}
	.st8{clip-path:url(#SVGID_26_);fill:#F18D65;}
	.st9{fill:none;stroke:#3EBBD1;stroke-width:0.6665;stroke-linecap:round;stroke-miterlimit:10;}
	.st10{clip-path:url(#SVGID_26_);fill:none;stroke:#AEAEAE;stroke-width:1.2668;stroke-linecap:round;stroke-miterlimit:10;}
	.st11{clip-path:url(#SVGID_26_);fill:none;stroke:#FFFFFF;stroke-width:0.6334;stroke-miterlimit:10;}
	.st12{clip-path:url(#SVGID_26_);fill:#3EBBD1;}
	.st13{fill:#3EBBD1;}
	.st14{fill:none;stroke:#3EBBD1;stroke-width:0.2672;stroke-linecap:round;stroke-linejoin:round;stroke-miterlimit:10;}
	.st15{clip-path:url(#SVGID_30_);fill:#FFFFFF;}
	.st16{clip-path:url(#SVGID_30_);fill:#F18D65;}
	.st17{clip-path:url(#SVGID_30_);}
	.st18{clip-path:url(#SVGID_30_);fill:none;stroke:#AEAEAE;stroke-width:1.2668;stroke-linecap:round;stroke-miterlimit:10;}
	.st19{clip-path:url(#SVGID_30_);fill:none;stroke:#AEAEAE;stroke-miterlimit:10;}
	.st20{clip-path:url(#SVGID_30_);fill:#3EBBD1;}
	
		.st21{clip-path:url(#SVGID_30_);fill:none;stroke:#FFFFFF;stroke-width:0.5;stroke-linecap:round;stroke-linejoin:round;stroke-miterlimit:10;}
	.st22{clip-path:url(#SVGID_34_);fill:#FFFFFF;}
	.st23{clip-path:url(#SVGID_34_);}
	.st24{clip-path:url(#SVGID_34_);fill:none;stroke:#AEAEAE;stroke-miterlimit:10;}
	.st25{clip-path:url(#SVGID_34_);fill:#96CB9E;}
	.st26{clip-path:url(#SVGID_34_);fill:none;stroke:#AEAEAE;stroke-width:1.2668;stroke-linecap:round;stroke-miterlimit:10;}
	.st27{clip-path:url(#SVGID_34_);fill:#3EBBD1;}
	
		.st28{clip-path:url(#SVGID_34_);fill:none;stroke:#FFFFFF;stroke-width:0.5;stroke-linecap:round;stroke-linejoin:round;stroke-miterlimit:10;}
	.st29{clip-path:url(#SVGID_34_);fill:none;stroke:#96CB9E;stroke-miterlimit:10;}
	.st30{clip-path:url(#SVGID_50_);fill:#FFFFFF;}
	.st31{clip-path:url(#SVGID_50_);}
	.st32{clip-path:url(#SVGID_50_);fill:#96CB9E;}
	.st33{clip-path:url(#SVGID_50_);fill:none;stroke:#AEAEAE;stroke-width:1.2668;stroke-linecap:round;stroke-miterlimit:10;}
	.st34{clip-path:url(#SVGID_50_);fill:none;stroke:#AEAEAE;stroke-miterlimit:10;}
	.st35{clip-path:url(#SVGID_50_);fill:#3EBBD1;}
	
		.st36{clip-path:url(#SVGID_50_);fill:none;stroke:#FFFFFF;stroke-width:0.5;stroke-linecap:round;stroke-linejoin:round;stroke-miterlimit:10;}
	.st37{clip-path:url(#SVGID_50_);fill:none;stroke:#96CB9E;stroke-width:0.4308;stroke-miterlimit:10;}
	.st38{clip-path:url(#SVGID_50_);fill:none;stroke:#96CB9E;stroke-miterlimit:10;}
	.st39{clip-path:url(#SVGID_68_);fill:#FFFFFF;}
	.st40{clip-path:url(#SVGID_68_);fill:#F18D65;}
	.st41{clip-path:url(#SVGID_68_);}
	.st42{fill:none;stroke:#FFFFFF;stroke-width:0.25;stroke-linecap:round;stroke-linejoin:round;stroke-miterlimit:10;}
	
		.st43{clip-path:url(#SVGID_68_);fill:none;stroke:#FFFFFF;stroke-width:0.25;stroke-linecap:round;stroke-linejoin:round;stroke-miterlimit:10;}
	.st44{clip-path:url(#SVGID_68_);fill:none;stroke:#FFFFFF;stroke-width:0.5537;stroke-miterlimit:10;}
	.st45{clip-path:url(#SVGID_68_);fill:#96CB9E;}
	.st46{clip-path:url(#SVGID_68_);fill:none;stroke:#AEAEAE;stroke-width:1.2668;stroke-linecap:round;stroke-miterlimit:10;}
	.st47{clip-path:url(#SVGID_68_);fill:none;stroke:#AEAEAE;stroke-miterlimit:10;}
	.st48{clip-path:url(#SVGID_68_);fill:#3EBBD1;}
	
		.st49{clip-path:url(#SVGID_68_);fill:none;stroke:#FFFFFF;stroke-width:0.5;stroke-linecap:round;stroke-linejoin:round;stroke-miterlimit:10;}
	.st50{clip-path:url(#SVGID_68_);fill:none;stroke:#FFFFFF;stroke-width:1.2282;stroke-miterlimit:10;}
	.st51{clip-path:url(#SVGID_82_);fill:#3EBBD1;}
	.st52{clip-path:url(#SVGID_82_);fill:none;stroke:#FFFFFF;stroke-width:1.2668;stroke-linecap:round;stroke-miterlimit:10;}
	.st53{clip-path:url(#SVGID_82_);}
	.st54{fill:#FFFFFF;}
	
		.st55{clip-path:url(#SVGID_82_);fill:none;stroke:#FFFFFF;stroke-width:0.25;stroke-linecap:round;stroke-linejoin:round;stroke-miterlimit:10;}
	.st56{fill:none;stroke:#FFFFFF;stroke-width:0.2954;stroke-linecap:round;stroke-linejoin:round;stroke-miterlimit:10;}
	
		.st57{clip-path:url(#SVGID_82_);fill:none;stroke:#FFFFFF;stroke-width:0.5222;stroke-linecap:round;stroke-linejoin:round;stroke-miterlimit:10;}
	.st58{fill:#4C4C4E;}
	.st59{fill:#D73449;}
	.st60{fill:#EDA216;}
	.st61{fill:#0099BD;}
	.st62{fill:#46B686;}
	.st63{fill:none;stroke:#3EBBD1;stroke-width:0.6521;stroke-linecap:round;stroke-linejoin:round;stroke-miterlimit:10;}
</style>
<g>
	<g>
		<path class="st13" d="M12.1,18.16v-6.78h1.51v5.43h2.89v1.35H12.1z"/>
		<path class="st13" d="M17.95,17.49c-0.5-0.5-0.75-1.15-0.75-1.96c0-0.81,0.26-1.46,0.77-1.95s1.1-0.73,1.78-0.73
			c0.52,0,0.98,0.17,1.37,0.52v-0.44h1.46v5.22h-1.46v-0.43c-0.41,0.34-0.89,0.5-1.42,0.5C19.03,18.24,18.45,17.99,17.95,17.49z
			 M18.67,15.56c0,0.43,0.13,0.77,0.38,1.04c0.25,0.27,0.55,0.4,0.88,0.4c0.34,0,0.62-0.13,0.85-0.4c0.23-0.27,0.35-0.61,0.35-1.04
			c0-0.42-0.12-0.78-0.35-1.06c-0.23-0.28-0.52-0.43-0.86-0.43c-0.34,0-0.64,0.14-0.88,0.42C18.79,14.78,18.67,15.13,18.67,15.56z"
			/>
		<path class="st13" d="M29.03,17.04c0.28,0,0.55-0.07,0.81-0.21c0.26-0.14,0.47-0.33,0.63-0.56l0.83,0.9
			c-0.67,0.7-1.42,1.06-2.26,1.06c-0.84,0-1.51-0.26-2-0.77c-0.5-0.51-0.75-1.16-0.75-1.95s0.27-1.43,0.82-1.93s1.18-0.74,1.89-0.74
			s1.31,0.2,1.79,0.6c0.48,0.4,0.74,0.92,0.78,1.55v0.18l-3.47,1.44C28.3,16.9,28.62,17.04,29.03,17.04z M29.07,14.11
			c-0.36,0-0.67,0.12-0.95,0.35c-0.27,0.23-0.41,0.56-0.41,0.97c0,0.08,0,0.14,0.01,0.17L30,14.68
			C29.91,14.3,29.61,14.11,29.07,14.11z"/>
		<path class="st13" d="M36.53,16.53c0,0.51-0.19,0.93-0.57,1.24c-0.38,0.31-0.86,0.47-1.44,0.47c-0.39,0-0.79-0.07-1.21-0.21
			c-0.42-0.14-0.8-0.34-1.13-0.62l0.64-0.91c0.54,0.42,1.12,0.63,1.74,0.63c0.19,0,0.34-0.04,0.45-0.11
			c0.11-0.07,0.16-0.17,0.16-0.3s-0.08-0.24-0.23-0.34c-0.15-0.1-0.37-0.2-0.66-0.29c-0.29-0.09-0.51-0.17-0.66-0.23
			c-0.15-0.06-0.32-0.16-0.52-0.28c-0.39-0.25-0.59-0.61-0.59-1.09c0-0.48,0.19-0.87,0.58-1.18c0.39-0.3,0.89-0.46,1.5-0.46
			c0.61,0,1.23,0.21,1.84,0.62l-0.54,0.97c-0.45-0.31-0.9-0.47-1.35-0.47c-0.45,0-0.67,0.12-0.67,0.37c0,0.14,0.07,0.24,0.21,0.32
			c0.14,0.08,0.38,0.17,0.71,0.27c0.33,0.1,0.56,0.18,0.7,0.24c0.14,0.05,0.31,0.14,0.5,0.26C36.34,15.65,36.53,16.02,36.53,16.53z"
			/>
		<path class="st13" d="M40.68,12.85c0.61,0,1.15,0.25,1.62,0.76c0.48,0.51,0.71,1.15,0.71,1.92s-0.24,1.41-0.71,1.93
			c-0.48,0.52-1.03,0.78-1.67,0.78s-1.15-0.26-1.54-0.77v2.57h-1.46v-7.1h1.46v0.58C39.54,13.07,40.07,12.85,40.68,12.85z
			 M39.08,15.55c0,0.42,0.12,0.77,0.35,1.04c0.24,0.27,0.52,0.4,0.86,0.4c0.34,0,0.63-0.13,0.88-0.4c0.25-0.27,0.38-0.61,0.38-1.03
			c0-0.42-0.12-0.77-0.37-1.06c-0.25-0.28-0.54-0.43-0.88-0.43c-0.34,0-0.63,0.14-0.87,0.42C39.19,14.78,39.08,15.13,39.08,15.55z"
			/>
		<path class="st13" d="M46.57,17.04c0.28,0,0.55-0.07,0.81-0.21c0.26-0.14,0.47-0.33,0.63-0.56l0.83,0.9
			c-0.67,0.7-1.42,1.06-2.26,1.06c-0.84,0-1.51-0.26-2-0.77c-0.5-0.51-0.75-1.16-0.75-1.95s0.27-1.43,0.82-1.93s1.18-0.74,1.89-0.74
			c0.71,0,1.31,0.2,1.79,0.6c0.48,0.4,0.74,0.92,0.78,1.55v0.18l-3.47,1.44C45.84,16.9,46.16,17.04,46.57,17.04z M46.61,14.11
			c-0.36,0-0.67,0.12-0.95,0.35c-0.27,0.23-0.41,0.56-0.41,0.97c0,0.08,0,0.14,0.01,0.17l2.27-0.92
			C47.45,14.3,47.14,14.11,46.61,14.11z"/>
		<path class="st13" d="M52.88,14.22c-0.43,0-0.76,0.15-0.97,0.46c-0.21,0.31-0.32,0.71-0.32,1.22v2.26h-1.46v-5.22h1.46v0.69
			c0.19-0.21,0.42-0.39,0.7-0.54c0.28-0.15,0.57-0.23,0.86-0.23l0.01,1.37H52.88z"/>
		<path class="st13" d="M54.56,17.49c-0.5-0.5-0.75-1.15-0.75-1.96c0-0.81,0.26-1.46,0.77-1.95c0.51-0.49,1.1-0.73,1.78-0.73
			c0.52,0,0.98,0.17,1.37,0.52v-0.44h1.46v5.22h-1.46v-0.43c-0.41,0.34-0.89,0.5-1.42,0.5C55.64,18.24,55.06,17.99,54.56,17.49z
			 M55.28,15.56c0,0.43,0.13,0.77,0.38,1.04c0.25,0.27,0.55,0.4,0.88,0.4c0.34,0,0.62-0.13,0.85-0.4c0.23-0.27,0.35-0.61,0.35-1.04
			c0-0.42-0.12-0.78-0.35-1.06c-0.23-0.28-0.52-0.43-0.86-0.43c-0.34,0-0.64,0.14-0.88,0.42C55.4,14.78,55.28,15.13,55.28,15.56z"/>
		<path class="st13" d="M62.07,15.25v2.91h-1.46v-5.22h1.46v0.58c0.44-0.45,0.93-0.67,1.48-0.67c0.55,0,1.01,0.19,1.38,0.58
			c0.37,0.39,0.56,0.91,0.56,1.55v3.17h-1.46v-2.95c0-0.8-0.29-1.2-0.88-1.2c-0.29,0-0.55,0.11-0.76,0.32
			C62.18,14.53,62.07,14.84,62.07,15.25z"/>
		<path class="st13" d="M66.79,15.92v-0.79h1.33l0.86-0.98h-2.28v-1.2h4.21v1.14l-0.93,1.05h0.59v0.79H69.3l-0.91,1.03h2.68v1.21
			h-4.54v-1.2l0.91-1.04H66.79z"/>
		<path class="st13" d="M72.63,17.49c-0.5-0.5-0.75-1.15-0.75-1.96c0-0.81,0.26-1.46,0.77-1.95s1.1-0.73,1.78-0.73
			c0.52,0,0.98,0.17,1.37,0.52v-0.44h1.46v5.22H75.8v-0.43c-0.41,0.34-0.89,0.5-1.42,0.5C73.71,18.24,73.13,17.99,72.63,17.49z
			 M73.35,15.56c0,0.43,0.13,0.77,0.38,1.04c0.25,0.27,0.55,0.4,0.88,0.4c0.34,0,0.62-0.13,0.85-0.4c0.23-0.27,0.35-0.61,0.35-1.04
			c0-0.42-0.12-0.78-0.35-1.06c-0.23-0.28-0.52-0.43-0.86-0.43c-0.34,0-0.64,0.14-0.88,0.42C73.47,14.78,73.35,15.13,73.35,15.56z"
			/>
	</g>
	<path class="st63" d="M76.87,6.22h2.89c2.55,0,4.62,2.07,4.62,4.62v0c0,2.55-2.07,4.62-4.62,4.62l0,0"/>
	<path class="st63" d="M12.46,6.22H9.57c-2.55,0-4.62,2.07-4.62,4.62v0c0,2.55,2.07,4.62,4.62,4.62l0,0"/>
	<g>
		<path class="st13" d="M18.36,4.54V8.4h-0.72V6.75h-2V8.4h-0.72V4.54h0.72v1.59h2V4.54H18.36z"/>
		<path class="st13" d="M22.04,5.46V8.4h-0.66V8.03c-0.11,0.13-0.25,0.23-0.41,0.31c-0.17,0.07-0.34,0.11-0.54,0.11
			c-0.39,0-0.7-0.11-0.93-0.33c-0.23-0.22-0.34-0.54-0.34-0.97V5.46h0.69v1.59c0,0.26,0.06,0.46,0.18,0.59
			c0.12,0.13,0.29,0.2,0.51,0.2c0.25,0,0.44-0.08,0.59-0.23c0.15-0.15,0.22-0.37,0.22-0.66V5.46H22.04z"/>
		<path class="st13" d="M25.01,7.54l0.36,0.42c-0.13,0.16-0.29,0.28-0.5,0.36c-0.2,0.08-0.43,0.12-0.68,0.12
			c-0.32,0-0.61-0.06-0.86-0.19c-0.25-0.13-0.44-0.31-0.57-0.54c-0.13-0.23-0.2-0.49-0.2-0.78c0-0.29,0.07-0.55,0.2-0.78
			s0.31-0.41,0.54-0.54c0.23-0.13,0.49-0.19,0.78-0.19c0.28,0,0.53,0.06,0.75,0.18c0.23,0.12,0.41,0.29,0.54,0.51
			c0.13,0.22,0.2,0.48,0.2,0.78l-2.26,0.44c0.07,0.17,0.18,0.3,0.34,0.39c0.15,0.09,0.34,0.13,0.56,0.13
			C24.53,7.86,24.8,7.75,25.01,7.54z M23.47,6.22c-0.16,0.17-0.23,0.39-0.23,0.67V6.9l1.67-0.32c-0.05-0.18-0.14-0.33-0.29-0.44
			c-0.15-0.11-0.32-0.17-0.53-0.17C23.83,5.98,23.63,6.06,23.47,6.22z"/>
		<path class="st13" d="M27.8,5.42v0.66c-0.06-0.01-0.11-0.02-0.16-0.02c-0.27,0-0.48,0.08-0.63,0.23
			c-0.15,0.16-0.23,0.38-0.23,0.68V8.4H26.1V5.46h0.66v0.43C26.95,5.58,27.3,5.42,27.8,5.42z"/>
		<path class="st13" d="M29.91,8.24c-0.08,0.07-0.18,0.12-0.3,0.15c-0.12,0.03-0.24,0.05-0.37,0.05c-0.32,0-0.57-0.08-0.75-0.25
			c-0.18-0.17-0.26-0.42-0.26-0.74V4.81h0.69v0.67h0.79v0.55h-0.79v1.4c0,0.14,0.04,0.25,0.11,0.33c0.07,0.08,0.17,0.11,0.3,0.11
			c0.15,0,0.28-0.04,0.39-0.12L29.91,8.24z"/>
		<path class="st13" d="M33.12,5.46V8.4h-0.66V8.02c-0.11,0.14-0.25,0.24-0.42,0.31c-0.17,0.07-0.35,0.1-0.55,0.1
			c-0.29,0-0.54-0.06-0.77-0.19c-0.23-0.13-0.4-0.3-0.53-0.53c-0.13-0.23-0.19-0.49-0.19-0.79c0-0.3,0.06-0.57,0.19-0.79
			c0.13-0.23,0.3-0.4,0.53-0.53c0.23-0.12,0.48-0.19,0.77-0.19c0.19,0,0.37,0.03,0.53,0.1c0.16,0.07,0.3,0.16,0.42,0.29V5.46H33.12z
			 M32.19,7.6c0.17-0.17,0.25-0.39,0.25-0.67s-0.08-0.5-0.25-0.67s-0.38-0.25-0.63-0.25s-0.46,0.08-0.63,0.25s-0.25,0.39-0.25,0.67
			s0.08,0.5,0.25,0.67c0.16,0.17,0.37,0.25,0.63,0.25S32.02,7.77,32.19,7.6z"/>
		<path class="st13" d="M37.92,4.69c0.26,0.14,0.46,0.34,0.6,0.6c0.14,0.27,0.21,0.59,0.21,0.97V8.4h-0.72V7.41h-2.01V8.4H35.3V6.26
			c0-0.38,0.07-0.7,0.21-0.97c0.14-0.27,0.34-0.47,0.6-0.6c0.26-0.14,0.56-0.2,0.91-0.2C37.36,4.49,37.67,4.55,37.92,4.69z
			 M38.02,6.81V6.2c0-0.36-0.09-0.63-0.26-0.81c-0.18-0.18-0.42-0.27-0.74-0.27c-0.32,0-0.56,0.09-0.74,0.27
			c-0.18,0.18-0.26,0.45-0.26,0.81v0.61H38.02z"/>
		<path class="st13" d="M42.46,5.46v2.5c0,1.04-0.53,1.56-1.59,1.56c-0.28,0-0.55-0.04-0.81-0.11c-0.25-0.07-0.46-0.18-0.63-0.31
			l0.31-0.52c0.13,0.11,0.29,0.19,0.49,0.26c0.2,0.06,0.4,0.1,0.6,0.1c0.32,0,0.56-0.07,0.71-0.22c0.15-0.15,0.23-0.37,0.23-0.67
			V7.88c-0.12,0.13-0.26,0.23-0.43,0.29c-0.17,0.07-0.36,0.1-0.56,0.1c-0.28,0-0.53-0.06-0.76-0.18c-0.23-0.12-0.4-0.29-0.54-0.5
			c-0.13-0.22-0.2-0.47-0.2-0.74c0-0.28,0.07-0.53,0.2-0.74c0.13-0.22,0.31-0.38,0.54-0.5c0.23-0.12,0.48-0.18,0.76-0.18
			c0.21,0,0.41,0.04,0.58,0.11c0.17,0.07,0.32,0.18,0.44,0.32V5.46H42.46z M41.53,7.45c0.17-0.16,0.25-0.36,0.25-0.61
			c0-0.25-0.08-0.45-0.25-0.6c-0.17-0.15-0.38-0.23-0.64-0.23c-0.26,0-0.48,0.08-0.65,0.23c-0.17,0.15-0.25,0.36-0.25,0.6
			c0,0.25,0.08,0.45,0.25,0.61c0.17,0.16,0.38,0.23,0.65,0.23C41.15,7.69,41.36,7.61,41.53,7.45z"/>
		<path class="st13" d="M44.93,5.42v0.66c-0.06-0.01-0.11-0.02-0.16-0.02c-0.27,0-0.48,0.08-0.63,0.23
			c-0.15,0.16-0.23,0.38-0.23,0.68V8.4h-0.69V5.46h0.66v0.43C44.08,5.58,44.43,5.42,44.93,5.42z"/>
		<path class="st13" d="M45.87,8.25c-0.24-0.13-0.43-0.31-0.56-0.54c-0.13-0.23-0.2-0.49-0.2-0.78c0-0.29,0.07-0.55,0.2-0.78
			c0.13-0.23,0.32-0.41,0.56-0.54c0.24-0.13,0.51-0.19,0.81-0.19c0.3,0,0.57,0.06,0.81,0.19c0.24,0.13,0.43,0.31,0.56,0.54
			c0.13,0.23,0.2,0.49,0.2,0.78c0,0.29-0.07,0.55-0.2,0.78c-0.13,0.23-0.32,0.41-0.56,0.54c-0.24,0.13-0.51,0.19-0.81,0.19
			C46.38,8.44,46.11,8.38,45.87,8.25z M47.3,7.6c0.17-0.17,0.25-0.39,0.25-0.67s-0.08-0.5-0.25-0.67s-0.38-0.25-0.63-0.25
			c-0.25,0-0.46,0.08-0.63,0.25S45.8,6.66,45.8,6.93s0.08,0.5,0.25,0.67c0.16,0.17,0.37,0.25,0.63,0.25
			C46.93,7.85,47.14,7.77,47.3,7.6z"/>
		<path class="st13" d="M50.97,7.54l0.36,0.42c-0.13,0.16-0.29,0.28-0.5,0.36c-0.2,0.08-0.43,0.12-0.68,0.12
			c-0.32,0-0.61-0.06-0.86-0.19c-0.25-0.13-0.44-0.31-0.57-0.54c-0.13-0.23-0.2-0.49-0.2-0.78c0-0.29,0.07-0.55,0.2-0.78
			c0.13-0.23,0.31-0.41,0.54-0.54c0.23-0.13,0.49-0.19,0.78-0.19c0.28,0,0.53,0.06,0.75,0.18c0.23,0.12,0.41,0.29,0.54,0.51
			c0.13,0.22,0.2,0.48,0.2,0.78l-2.26,0.44c0.07,0.17,0.18,0.3,0.34,0.39c0.15,0.09,0.34,0.13,0.56,0.13
			C50.49,7.86,50.76,7.75,50.97,7.54z M49.43,6.22c-0.16,0.17-0.23,0.39-0.23,0.67V6.9l1.67-0.32c-0.05-0.18-0.14-0.33-0.29-0.44
			s-0.32-0.17-0.53-0.17C49.79,5.98,49.59,6.06,49.43,6.22z"/>
		<path class="st13" d="M52.59,8.25c-0.24-0.13-0.43-0.31-0.57-0.54c-0.14-0.23-0.2-0.49-0.2-0.78c0-0.29,0.07-0.55,0.2-0.78
			c0.14-0.23,0.32-0.41,0.57-0.54c0.24-0.13,0.52-0.19,0.82-0.19c0.29,0,0.55,0.06,0.76,0.18c0.22,0.12,0.38,0.29,0.49,0.51
			l-0.53,0.31c-0.08-0.14-0.19-0.24-0.32-0.31c-0.13-0.07-0.27-0.1-0.42-0.1c-0.26,0-0.47,0.08-0.64,0.25
			c-0.17,0.17-0.25,0.39-0.25,0.67c0,0.28,0.08,0.5,0.25,0.67c0.17,0.17,0.38,0.25,0.64,0.25c0.15,0,0.29-0.03,0.42-0.1
			c0.13-0.07,0.23-0.17,0.32-0.31l0.53,0.31c-0.11,0.22-0.28,0.39-0.5,0.51c-0.22,0.12-0.47,0.18-0.76,0.18
			C53.11,8.44,52.83,8.38,52.59,8.25z"/>
		<path class="st13" d="M55.6,8.25c-0.24-0.13-0.43-0.31-0.56-0.54c-0.13-0.23-0.2-0.49-0.2-0.78c0-0.29,0.07-0.55,0.2-0.78
			c0.13-0.23,0.32-0.41,0.56-0.54c0.24-0.13,0.51-0.19,0.81-0.19c0.3,0,0.57,0.06,0.81,0.19c0.24,0.13,0.43,0.31,0.56,0.54
			c0.13,0.23,0.2,0.49,0.2,0.78c0,0.29-0.07,0.55-0.2,0.78c-0.13,0.23-0.32,0.41-0.56,0.54c-0.24,0.13-0.51,0.19-0.81,0.19
			C56.11,8.44,55.84,8.38,55.6,8.25z M57.04,7.6c0.17-0.17,0.25-0.39,0.25-0.67s-0.08-0.5-0.25-0.67c-0.17-0.17-0.38-0.25-0.63-0.25
			c-0.25,0-0.46,0.08-0.63,0.25c-0.16,0.17-0.25,0.39-0.25,0.67s0.08,0.5,0.25,0.67c0.16,0.17,0.37,0.25,0.63,0.25
			C56.66,7.85,56.87,7.77,57.04,7.6z"/>
		<path class="st13" d="M58.76,8.19c-0.17-0.17-0.26-0.4-0.26-0.71V4.31h0.69v3.12c0,0.29,0.14,0.44,0.41,0.44
			c0.09,0,0.17-0.02,0.25-0.06l0.03,0.55c-0.13,0.05-0.27,0.07-0.41,0.07C59.17,8.44,58.93,8.36,58.76,8.19z"/>
		<path class="st13" d="M60.68,8.25c-0.24-0.13-0.43-0.31-0.56-0.54c-0.13-0.23-0.2-0.49-0.2-0.78c0-0.29,0.07-0.55,0.2-0.78
			c0.13-0.23,0.32-0.41,0.56-0.54c0.24-0.13,0.51-0.19,0.81-0.19c0.3,0,0.57,0.06,0.81,0.19c0.24,0.13,0.43,0.31,0.56,0.54
			c0.13,0.23,0.2,0.49,0.2,0.78c0,0.29-0.07,0.55-0.2,0.78c-0.13,0.23-0.32,0.41-0.56,0.54c-0.24,0.13-0.51,0.19-0.81,0.19
			C61.19,8.44,60.92,8.38,60.68,8.25z M62.12,7.6c0.17-0.17,0.25-0.39,0.25-0.67s-0.08-0.5-0.25-0.67s-0.38-0.25-0.63-0.25
			c-0.25,0-0.46,0.08-0.63,0.25s-0.25,0.39-0.25,0.67s0.08,0.5,0.25,0.67c0.16,0.17,0.37,0.25,0.63,0.25
			C61.74,7.85,61.95,7.77,62.12,7.6z M61.77,4.3h0.81l-0.96,0.76h-0.6L61.77,4.3z"/>
		<path class="st13" d="M66.51,5.46v2.5c0,1.04-0.53,1.56-1.59,1.56c-0.28,0-0.55-0.04-0.81-0.11c-0.25-0.07-0.46-0.18-0.63-0.31
			l0.31-0.52c0.13,0.11,0.29,0.19,0.49,0.26s0.4,0.1,0.6,0.1c0.32,0,0.56-0.07,0.71-0.22c0.15-0.15,0.23-0.37,0.23-0.67V7.88
			c-0.12,0.13-0.26,0.23-0.43,0.29c-0.17,0.07-0.36,0.1-0.56,0.1c-0.28,0-0.53-0.06-0.76-0.18c-0.23-0.12-0.4-0.29-0.54-0.5
			c-0.13-0.22-0.2-0.47-0.2-0.74c0-0.28,0.07-0.53,0.2-0.74c0.13-0.22,0.31-0.38,0.54-0.5c0.23-0.12,0.48-0.18,0.76-0.18
			c0.21,0,0.41,0.04,0.58,0.11c0.17,0.07,0.32,0.18,0.44,0.32V5.46H66.51z M65.58,7.45c0.17-0.16,0.25-0.36,0.25-0.61
			c0-0.25-0.08-0.45-0.25-0.6c-0.17-0.15-0.38-0.23-0.64-0.23c-0.26,0-0.48,0.08-0.65,0.23c-0.17,0.15-0.25,0.36-0.25,0.6
			c0,0.25,0.08,0.45,0.25,0.61c0.17,0.16,0.38,0.23,0.65,0.23C65.2,7.69,65.41,7.61,65.58,7.45z"/>
		<path class="st13" d="M67.31,4.85c-0.08-0.08-0.13-0.18-0.13-0.3c0-0.12,0.04-0.22,0.13-0.3c0.08-0.08,0.19-0.12,0.31-0.12
			s0.23,0.04,0.31,0.11c0.08,0.08,0.13,0.17,0.13,0.28c0,0.12-0.04,0.22-0.12,0.31c-0.08,0.08-0.19,0.12-0.32,0.12
			C67.5,4.97,67.4,4.93,67.31,4.85z M67.28,5.46h0.69V8.4h-0.69V5.46z"/>
		<path class="st13" d="M69.26,8.25c-0.24-0.13-0.43-0.31-0.57-0.54c-0.14-0.23-0.2-0.49-0.2-0.78c0-0.29,0.07-0.55,0.2-0.78
			c0.14-0.23,0.32-0.41,0.57-0.54c0.24-0.13,0.52-0.19,0.82-0.19c0.29,0,0.55,0.06,0.76,0.18c0.22,0.12,0.38,0.29,0.49,0.51
			l-0.53,0.31c-0.08-0.14-0.19-0.24-0.32-0.31c-0.13-0.07-0.27-0.1-0.42-0.1c-0.26,0-0.47,0.08-0.64,0.25
			c-0.17,0.17-0.25,0.39-0.25,0.67c0,0.28,0.08,0.5,0.25,0.67c0.17,0.17,0.38,0.25,0.64,0.25c0.15,0,0.29-0.03,0.42-0.1
			c0.13-0.07,0.23-0.17,0.32-0.31l0.53,0.31c-0.11,0.22-0.28,0.39-0.5,0.51c-0.22,0.12-0.47,0.18-0.76,0.18
			C69.78,8.44,69.51,8.38,69.26,8.25z"/>
		<path class="st13" d="M74.64,5.46V8.4h-0.66V8.02c-0.11,0.14-0.25,0.24-0.42,0.31c-0.17,0.07-0.35,0.1-0.55,0.1
			c-0.29,0-0.54-0.06-0.77-0.19c-0.23-0.13-0.4-0.3-0.53-0.53c-0.13-0.23-0.19-0.49-0.19-0.79c0-0.3,0.06-0.57,0.19-0.79
			c0.13-0.23,0.3-0.4,0.53-0.53c0.23-0.12,0.48-0.19,0.77-0.19c0.19,0,0.37,0.03,0.53,0.1c0.16,0.07,0.3,0.16,0.42,0.29V5.46H74.64z
			 M73.71,7.6c0.17-0.17,0.25-0.39,0.25-0.67s-0.08-0.5-0.25-0.67s-0.38-0.25-0.63-0.25s-0.46,0.08-0.63,0.25s-0.25,0.39-0.25,0.67
			s0.08,0.5,0.25,0.67c0.16,0.17,0.37,0.25,0.63,0.25S73.55,7.77,73.71,7.6z"/>
	</g>
</g>
</svg>
